<?xml version="1.0" encoding="utf-8"?>
<!-- Generator: Adobe Illustrator 18.1.1, SVG Export Plug-In . SVG Version: 6.00 Build 0)  -->
<svg version="1.1" id="图层_1" xmlns="http://www.w3.org/2000/svg" xmlns:xlink="http://www.w3.org/1999/xlink" x="0px" y="0px"
	 viewBox="0 0 612 792" enable-background="new 0 0 612 792" xml:space="preserve">
<title>MyEtherWalelt Logo</title>
<circle cx="71.4" cy="396" r="62.2"/>
<g>
	<path d="M127.7,396.5l-19.5,47.7l-10.3-24.3l9.4-22.9h-5.1L94.6,416L87,396.9h-5l9.4,22.9l-10.2,24.3l-19.5-47.7l-9.8-23.1
		l10.1-24.3l19.5,47.7h5.8L64.4,343h-4.7l-11.3,26.4L37,343h-4.6L9.7,396.7h5.7l19.5-47.7l10.2,24.3l-9.4,23h5l7.6-19.1l7.7,19.3
		l22.7,53.8h4.6l11.4-26.6l11.3,26.6h4.7l22.8-53.8C133.5,396.5,127.7,396.5,127.7,396.5z"/>
	<path d="M76,420.3c-1.5,0.4-3,0.5-4.5,0.5c-10.8,0-20.1-8.3-20.7-20.5c0.2-2.3,0.5-4.7,1.1-6.9L35,386.3c-1.8,4.8-2.6,9.9-2.6,15
		c0,21,18,38.1,39,38.1c4.8,0,9.6-1,14.1-2.8L76,420.3z"/>
	<path d="M71.4,361c-5.5,0-10.9,1.2-15.8,3.4l9.4,16c2.1-0.7,4.2-1.1,6.4-1.1c9.6,0,19.8,8,20.7,18l-27.3,0.1l42.6,18.1
		c2.1-5.1,3.1-10.6,3-16.2C110.4,378.5,92.4,361,71.4,361z"/>
	<path d="M76,416.1c-1.5,0.4-3,0.5-4.5,0.5c-10.8,0-20.1-8.3-20.7-20.5c0.2-2.3,0.5-4.7,1.1-6.9L35,382.1c-1.8,4.8-2.6,9.9-2.6,15
		c0,21,18,38.1,39,38.1c4.8,0,9.6-0.9,14.1-2.7L76,416.1z M71.4,356.9c-5.5,0-10.9,1.2-15.8,3.4l9.4,16c2.1-0.7,4.2-1.1,6.4-1.1
		c9.6,0,19.8,8,20.7,18l-27.3,0.1l42.6,18.1c2.1-5.1,3.1-10.6,3-16.2C110.4,374.3,92.4,356.9,71.4,356.9z"/>
</g>
<path d="M209.8,414.6v-27.9L199,407.5h-4.5l-10.9-20.8v27.9h-8.2v-42.1h8.8l12.5,24l12.6-24h8.7v42.1H209.8z M227.3,420.6
	c0.6,0.2,1.3,0.3,1.9,0.4c0.5,0.1,1.1,0.1,1.6,0.2c0.5,0,1-0.1,1.4-0.3c0.5-0.2,0.9-0.6,1.2-1c0.4-0.6,0.8-1.3,1.1-2
	c0.3-0.9,0.7-2,1.1-3.3l-12.3-31.1h8.2l8.4,24.1l7.5-24.2h7.5l-13.1,37.3c-0.7,2.1-2.1,4-3.9,5.3c-2,1.4-4.3,2.2-6.7,2.1
	c-0.7,0-1.3-0.1-1.9-0.2c-0.7-0.1-1.4-0.3-2-0.5L227.3,420.6L227.3,420.6z M289.8,407.4v7.2h-29.2v-42.1h28.7v7.2h-20.5v10.1h17.7
	v6.6h-17.7v11H289.8L289.8,407.4z M313.8,413c-1.3,0.5-2.6,1-3.9,1.4c-1.6,0.5-3.2,0.7-4.9,0.7c-1.1,0-2.1-0.1-3.1-0.4
	c-0.9-0.3-1.8-0.7-2.5-1.3c-0.8-0.6-1.4-1.5-1.7-2.4c-0.5-1.1-0.7-2.3-0.7-3.5v-17.9h-4.1v-6.1h4.1v-10.1h8v10.1h6.5v6.1H305v15.2
	c-0.1,0.9,0.2,1.7,0.9,2.4c0.6,0.5,1.3,0.7,2.1,0.7c0.8,0,1.6-0.1,2.4-0.4c0.8-0.3,1.4-0.5,1.9-0.7L313.8,413z M347.5,414.6h-7.9
	v-17.5c0.1-1.9-0.3-3.8-1.4-5.4c-0.9-1.2-2.4-1.8-3.9-1.7c-0.8,0-1.5,0.2-2.3,0.5c-0.8,0.3-1.6,0.8-2.3,1.3c-0.7,0.6-1.4,1.3-1.9,2
	c-0.6,0.8-1,1.7-1.3,2.6v18.1h-7.9v-43.2h7.9v18c1.1-2,2.7-3.6,4.7-4.7c2-1.1,4.2-1.7,6.5-1.6c1.7-0.1,3.4,0.3,4.9,1
	c1.2,0.6,2.2,1.6,3,2.8c0.7,1.2,1.2,2.5,1.5,3.9c0.3,1.5,0.4,3,0.4,4.5L347.5,414.6L347.5,414.6z M369.4,415.2
	c-2.3,0-4.6-0.4-6.8-1.3c-3.9-1.6-6.9-4.7-8.5-8.6c-0.8-1.9-1.2-4-1.2-6.1c0-2.1,0.4-4.3,1.1-6.3c0.7-1.9,1.9-3.7,3.3-5.1
	c1.5-1.5,3.2-2.6,5.1-3.4c2.2-0.9,4.5-1.3,6.9-1.3c2.3,0,4.6,0.4,6.8,1.3c1.9,0.8,3.7,2,5.1,3.5c1.4,1.5,2.5,3.2,3.2,5.1
	c0.7,1.9,1.1,4,1.1,6v1.5c0,0.4-0.1,0.8-0.2,1.2h-24.1c0.1,1.1,0.4,2.2,0.9,3.3c0.9,1.8,2.5,3.2,4.4,3.9c1,0.4,2,0.5,3,0.5
	c1.6,0,3.1-0.4,4.5-1.2c1.3-0.6,2.3-1.7,2.9-3.1l6.8,1.9c-1.2,2.4-3.1,4.5-5.5,5.8C375.7,414.5,372.6,415.3,369.4,415.2L369.4,415.2
	z M377.5,396.4c-0.1-2.1-1-4.1-2.5-5.6c-3.1-2.9-7.9-2.9-11,0c-0.7,0.7-1.3,1.5-1.7,2.4c-0.5,1-0.7,2.1-0.8,3.1L377.5,396.4
	L377.5,396.4z M409.7,390.4c-2.2,0-4.4,0.5-6.5,1.4c-1.8,0.8-3.3,2.2-4.1,4v18.8h-7.9v-31.1h7.3v6.7c0.5-1,1.2-2,1.9-2.9
	c0.7-0.8,1.5-1.6,2.4-2.2c0.8-0.6,1.7-1.1,2.6-1.5c0.8-0.3,1.7-0.5,2.6-0.5h1c0.2,0,0.4,0,0.6,0L409.7,390.4L409.7,390.4z
	 M430,372.6h7.5l4.7,13.9l4.7-13.9h7.6l-7.2,19.2l5.2,13.5l11.9-32.8h8.9l-17.1,42.1h-6.8l-7.3-17.7l-7.3,17.7h-6.9l-17-42.1h8.8
	l12,32.8l5.3-13.5L430,372.6z M483.3,415.2c-1.4,0-2.9-0.2-4.2-0.7c-1.3-0.5-2.4-1.2-3.4-2.1c-0.9-0.9-1.7-1.9-2.2-3.1
	c-0.5-1.2-0.8-2.5-0.8-3.9c0-1.4,0.3-2.8,1-4.1c0.7-1.2,1.6-2.3,2.7-3.2c1.3-0.9,2.7-1.7,4.2-2.1c1.7-0.5,3.5-0.8,5.3-0.7
	c1.4,0,2.7,0.1,4.1,0.3c1.2,0.2,2.4,0.5,3.5,1v-1.7c0.1-1.8-0.5-3.5-1.7-4.7c-1.5-1.2-3.3-1.8-5.2-1.7c-1.7,0-3.3,0.3-4.9,0.9
	c-1.7,0.7-3.4,1.5-4.9,2.6l-2.4-5.1c3.8-2.6,8.3-3.9,12.9-3.9c3.7-0.2,7.4,0.9,10.4,3.2c2.6,2.5,3.9,6,3.7,9.5v9.7
	c-0.1,0.6,0.1,1.3,0.4,1.8c0.4,0.4,0.9,0.6,1.5,0.6v6.8c-1.1,0.3-2.3,0.4-3.5,0.4c-1.2,0.1-2.5-0.3-3.5-1c-0.8-0.7-1.4-1.6-1.5-2.7
	l-0.2-1.8c-1.3,1.8-3.1,3.2-5.1,4.2C487.6,414.7,485.5,415.2,483.3,415.2L483.3,415.2z M485.5,409.3c1.3,0,2.6-0.2,3.9-0.7
	c1.1-0.4,2.1-1.1,2.8-1.9c0.8-0.5,1.3-1.3,1.3-2.3v-3.5c-1-0.4-2-0.7-3.1-0.9c-1.1-0.2-2.1-0.3-3.2-0.3c-1.8-0.1-3.6,0.4-5.1,1.4
	c-1.2,0.8-1.9,2.1-1.9,3.5c0,1.3,0.5,2.5,1.5,3.4C482.8,408.9,484.2,409.4,485.5,409.3L485.5,409.3z M509.4,371.3h7.9v33.3
	c-0.1,1,0.2,1.9,0.8,2.7c0.6,0.7,1.5,1,2.4,1c0.5,0,1.1-0.1,1.6-0.2c0.6-0.2,1.1-0.4,1.6-0.6l1.1,6.1c-1.2,0.6-2.4,1-3.7,1.2
	c-1.3,0.3-2.6,0.4-3.9,0.4c-2.1,0.2-4.2-0.5-5.8-1.9c-1.4-1.5-2.2-3.6-2-5.7L509.4,371.3L509.4,371.3z M528.8,371.3h7.9v33.3
	c-0.1,1,0.2,1.9,0.8,2.7c0.6,0.7,1.5,1,2.4,1c0.5,0,1.1-0.1,1.6-0.2c0.6-0.2,1.1-0.4,1.6-0.6l1.1,6.1c-1.2,0.6-2.4,1-3.7,1.2
	c-1.3,0.3-2.6,0.4-3.9,0.4c-2.1,0.2-4.2-0.5-5.8-1.9c-1.4-1.5-2.2-3.6-2-5.7L528.8,371.3L528.8,371.3z M562.7,415.2
	c-2.3,0-4.6-0.4-6.8-1.3c-3.9-1.6-6.9-4.7-8.5-8.6c-0.8-1.9-1.2-4-1.2-6.1c0-2.1,0.4-4.3,1.1-6.3c0.7-1.9,1.8-3.7,3.3-5.2
	c1.5-1.5,3.2-2.6,5.2-3.4c2.2-0.9,4.5-1.3,6.9-1.3c2.3,0,4.6,0.4,6.8,1.3c1.9,0.8,3.7,2,5.1,3.5c1.4,1.5,2.5,3.2,3.2,5.1
	c0.7,1.9,1.1,3.9,1.1,6v1.5c0,0.4-0.1,0.8-0.2,1.2h-24.1c0.1,1.1,0.4,2.2,0.9,3.3c0.9,1.8,2.5,3.2,4.4,3.9c1,0.4,2,0.5,3,0.5
	c1.6,0,3.1-0.4,4.5-1.2c1.3-0.6,2.3-1.7,2.9-3.1l6.8,1.9c-1.2,2.4-3.1,4.5-5.5,5.8C568.9,414.4,565.8,415.2,562.7,415.2z
	 M570.7,396.4c-0.1-2.1-1-4.1-2.6-5.6c-3.1-2.9-7.9-2.9-11,0c-0.7,0.7-1.3,1.5-1.7,2.4c-0.5,1-0.7,2.1-0.8,3.1L570.7,396.4
	L570.7,396.4z M602.8,413c-1.3,0.5-2.6,1-3.9,1.4c-1.6,0.5-3.2,0.7-4.9,0.7c-1.1,0-2.1-0.1-3.1-0.4c-0.9-0.3-1.8-0.7-2.5-1.3
	c-0.8-0.6-1.4-1.5-1.7-2.4c-0.5-1.1-0.7-2.3-0.7-3.5v-17.9h-4.1v-6.1h4.1v-10.1h7.9v10.1h6.5v6.1h-6.5v15.2
	c-0.1,0.9,0.2,1.7,0.9,2.4c0.6,0.5,1.3,0.7,2.1,0.7c0.8,0,1.6-0.1,2.4-0.4c0.8-0.3,1.4-0.5,1.9-0.7L602.8,413z"/>
</svg>
